<svg data-v-0dd9719b="" version="1.0" xmlns="http://www.w3.org/2000/svg" xmlns:xlink="http://www.w3.org/1999/xlink" width="100%" height="100%" viewBox="0 0 340.000000 250.000000" preserveAspectRatio="xMidYMid meet" color-interpolation-filters="sRGB" style="margin: auto;"> <rect data-v-0dd9719b="" x="0" y="0" width="100%" height="100%" fill="#fff" fill-opacity="1" class="background"></rect> <rect data-v-0dd9719b="" x="0" y="0" width="100%" height="100%" fill="url(#watermark)" fill-opacity="1" class="watermarklayer"></rect> <g data-v-0dd9719b="" fill="#333" class="icon-text-wrapper icon-svg-group iconsvg" transform="translate(80.21000683307648,73.54203033447266)"><g class="iconsvg-imagesvg" transform="translate(59.78999328613281,0)"><g><rect fill="#333" fill-opacity="0" stroke-width="2" x="0" y="0" width="60" height="69.14593249052125" class="image-rect"></rect> <svg x="0" y="0" width="60" height="69.14593249052125" filtersec="colorsb6945911519" class="image-svg-svg primary" style="overflow: visible;"><svg xmlns="http://www.w3.org/2000/svg" viewBox="-0.018470728769898415 0.005428065080195665 113.37003326416016 130.65081787109375"><title>资源 24</title><path d="M.75 32.77c.82-2 2.92-2.31 4.48-3.22C17.4 22.41 29.65 15.4 41.86 8.35c4.45-2.58 8.92-5.12 13.31-7.8a3.09 3.09 0 0 1 3.74.18C62.21 2.87 65.55 5 69 6.83c5.12 2.67 10.09 5.57 15.1 8.41 9.18 5.19 18.3 10.51 27.42 15.8 2.47 1.43 2.45 1.65-.11 3.13q-12.34 7.13-24.68 14.2a8.58 8.58 0 0 0-.9.69 3.14 3.14 0 0 0-1.83.74c-8.27 4.8-16.56 9.57-24.81 14.43-1.52.9-2.76 1.12-4.34.1-2.64-1.73-5.4-3.27-8.15-4.84-6.18-3.49-12.34-7-18.5-10.49-1.49-.92-2.95-1.86-4.45-2.75z" fill="#fb7cc9"></path><path d="M86.05 82.16l16.39 9.44c3.2 1.85 6.36 3.76 9.59 5.53 1.51.83 1.55 1.27 0 2.15q-20.76 11.91-41.47 23.91c-3.95 2.28-7.92 4.52-11.83 6.86a3 3 0 0 1-3.52.07Q28.31 114.49 1.34 99c-.43-.25-1-.38-1.07-1a2.73 2.73 0 0 0 .65-.2L27 82.71a1.55 1.55 0 0 0 .81-1.27c4.15 2 7.87 4.71 11.92 6.86 5.34 2.85 10.49 6 15.68 9.19a2.74 2.74 0 0 0 3.1 0c3.09-1.6 5.88-3.64 8.85-5.4 4.59-2.73 9.3-5.27 13.87-8.08 1.39-.88 2.77-2.53 4.82-1.85z" fill="#4b4ad6"></path><path d="M112.41 64.61c-5.39-3.12-10.66-6.44-16.18-9.3-3.61-1.88-6.84-4.33-10.4-6.25a3.14 3.14 0 0 0-1.83.74c-8.27 4.8-16.56 9.57-24.81 14.43-1.52.9-2.76 1.12-4.34.1-2.64-1.73-5.4-3.27-8.15-4.84-6.18-3.49-12.34-7-18.5-10.49l-16.84 9.85L.76 65v.8c2.41 1.24 4.58 2.92 7.13 3.89h.08a.46.46 0 0 1 .55.4c5.85 3.74 12 7.08 18 10.52.45.25.86.56 1.29.84 4.15 2 7.87 4.72 11.92 6.87 5.34 2.85 10.49 6 15.68 9.19a2.74 2.74 0 0 0 3.1 0c3.09-1.6 5.88-3.64 8.85-5.4 4.59-2.73 9.3-5.27 13.87-8.08 1.4-.86 2.74-2.51 4.83-1.83 0-.7.53-1 1.07-1.32C88.77 79.91 90.41 79 92 78c4.55-2.81 9.45-5 13.77-8.2l6.78-3.67c1.2-.65.63-1.07-.14-1.52zM8.23 69.09a1.34 1.34 0 0 1 .5-.3 1.34 1.34 0 0 0-.5.3zM9 68.7l.58-.1z" fill="#3d9ceb"></path><path d="M28.2 49l-16.84 9.85L.76 65l-.59-.08q0-15.44-.11-30.88c0-.56.09-1.06.69-1.29l23 13.48c1.5.91 2.96 1.85 4.45 2.77zM.76 65.82c2.41 1.24 4.58 2.92 7.13 3.89h.08l.55.4c5.85 3.74 12 7.08 18 10.52.45.25.86.56 1.29.84a1.56 1.56 0 0 1-.81 1.24L.92 97.73a2.73 2.73 0 0 1-.65.2 19.7 19.7 0 0 1-.22-5c0-9 .08-18 .12-27z" fill="#26105d"></path><path d="M.76 65.82l-.59.09a.83.83 0 0 1 0-1l.59.09z" fill="#4b4ad6"></path><path d="M8.52 70.07l-.52-.4a.46.46 0 0 1 .52.4z" fill="#3d9ceb"></path></svg></svg> <!----></g></g> <g transform="translate(0,76.14593505859375)"><g data-gra="path-name" fill-rule="" class="tp-name iconsvg-namesvg"><g transform="scale(1)"><g><path d="M21.92-6.42L21.92-6.42Q21.92-4.93 21.37-3.84 20.82-2.76 19.9-2 18.98-1.24 17.78-0.77 16.58-0.29 15.28-0.02 13.98 0.25 12.68 0.34 11.37 0.43 10.23 0.43L10.23 0.43Q9.11 0.43 7.91 0.35 6.71 0.27 5.52 0.07 4.33-0.13 3.18-0.46 2.02-0.79 0.99-1.3L0.99-1.3 0.96-24.54Q1.97-24.95 3.1-25.29 4.24-25.62 5.42-25.85 6.6-26.07 7.78-26.19 8.95-26.31 10.05-26.31L10.05-26.31Q11.33-26.31 12.64-26.14 13.95-25.98 15.16-25.6 16.37-25.22 17.41-24.62 18.46-24.02 19.24-23.13 20.03-22.25 20.47-21.07 20.91-19.9 20.91-18.37L20.91-18.37Q20.91-17.36 20.62-16.47 20.33-15.59 19.79-14.89 19.25-14.18 18.48-13.69 17.7-13.19 16.73-12.96L16.73-12.96Q17.9-12.65 18.86-12.05 19.83-11.46 20.51-10.61 21.18-9.76 21.55-8.7 21.92-7.63 21.92-6.42ZM12.76-16.71L12.76-16.71Q12.76-17.23 12.54-17.6 12.32-17.97 12.01-18.21 11.69-18.44 11.32-18.55 10.95-18.66 10.66-18.66L10.66-18.66Q10.3-18.66 9.96-18.55 9.62-18.44 9.29-18.3L9.29-18.3 9.18-14.29Q9.6-14.29 10.21-14.36 10.83-14.43 11.39-14.68 11.96-14.92 12.36-15.4 12.76-15.88 12.76-16.71ZM10.19-10.83L10.19-10.83Q9.67-10.83 9.18-10.72L9.18-10.72 9.11-6.6Q9.38-6.55 9.64-6.5 9.91-6.46 10.16-6.46L10.16-6.46Q10.54-6.46 10.99-6.54 11.44-6.62 11.84-6.87 12.23-7.11 12.49-7.52 12.76-7.94 12.76-8.62L12.76-8.62Q12.76-9.31 12.49-9.74 12.23-10.18 11.85-10.42 11.48-10.66 11.02-10.74 10.57-10.83 10.19-10.83ZM38.59-25.84L45.63-1.55 36.68-0.4 35.6-4.47 31.49-4.47 30.58-0.4 21.38-1.3 28.56-25.33 38.59-25.84ZM32.24-10L34.95-10 33.58-16.28 32.24-10ZM67.16-15.81L67.37-4.04Q66.53-2.98 65.28-2.18 64.04-1.39 62.61-0.87 61.18-0.34 59.69-0.08 58.19 0.18 56.84 0.18L56.84 0.18Q54.22 0.18 52.02-0.7 49.82-1.59 48.22-3.17 46.62-4.75 45.72-6.93 44.82-9.11 44.82-11.69L44.82-11.69Q44.82-13.66 45.27-15.52 45.72-17.38 46.56-19 47.4-20.62 48.61-21.98 49.82-23.33 51.35-24.3 52.88-25.28 54.72-25.81 56.55-26.34 58.6-26.34L58.6-26.34Q59.38-26.34 60.26-26.28 61.15-26.22 62.02-26.06 62.9-25.91 63.73-25.64 64.56-25.37 65.24-24.97L65.24-24.97 64.74-18.08Q63.73-18.46 62.66-18.59 61.58-18.73 60.55-18.73L60.55-18.73Q59.11-18.73 57.86-18.34 56.6-17.95 55.67-17.2 54.74-16.44 54.2-15.3 53.66-14.16 53.66-12.67L53.66-12.67Q53.66-11.73 53.91-10.85 54.17-9.98 54.68-9.3 55.19-8.62 55.96-8.21 56.73-7.79 57.74-7.79L57.74-7.79Q58.42-7.79 59.15-7.98 59.89-8.16 60.41-8.59L60.41-8.59 60.48-10 56.15-10.07 56.37-15.48Q59.06-15.57 61.74-15.63 64.43-15.7 67.16-15.81L67.16-15.81ZM87.24-9.24L87.24-9.24Q87.24-6.77 86.38-4.97 85.53-3.18 84.04-2.01 82.55-0.85 80.55-0.3 78.56 0.25 76.27 0.25L76.27 0.25Q75.38 0.25 74.33 0.02 73.27-0.22 72.19-0.57 71.11-0.92 70.11-1.33 69.11-1.73 68.33-2.09L68.33-2.09 69.12-9.17Q70.66-8.25 72.53-7.77 74.39-7.29 76.2-7.29L76.2-7.29Q76.54-7.29 77.03-7.32 77.51-7.34 77.96-7.48 78.4-7.61 78.7-7.88 79.01-8.16 79.01-8.66L79.01-8.66Q79.01-9 78.8-9.25 78.58-9.49 78.24-9.64 77.89-9.8 77.46-9.88 77.03-9.96 76.61-10 76.2-10.03 75.84-10.03 75.48-10.03 75.26-10.03L75.26-10.03Q73.71-10.03 72.43-10.52 71.16-11.01 70.25-11.9 69.34-12.79 68.84-14.06 68.33-15.34 68.33-16.89L68.33-16.89Q68.33-19.02 69.19-20.7 70.04-22.39 71.48-23.57 72.91-24.76 74.77-25.39 76.63-26.02 78.61-26.02L78.61-26.02Q79.5-26.02 80.44-25.96 81.38-25.89 82.3-25.73 83.23-25.57 84.12-25.31 85-25.06 85.8-24.68L85.8-24.68 85.11-17.36Q83.88-17.77 82.54-18.05 81.19-18.33 79.91-18.33L79.91-18.33Q79.68-18.33 79.31-18.32 78.94-18.31 78.53-18.27 78.13-18.22 77.71-18.13 77.3-18.04 76.97-17.89 76.65-17.74 76.45-17.48 76.25-17.23 76.27-16.89L76.27-16.89Q76.29-16.49 76.57-16.28 76.85-16.06 77.29-15.96 77.73-15.86 78.26-15.86 78.8-15.86 79.32-15.89 79.84-15.91 80.29-15.94 80.74-15.97 81.03-15.95L81.03-15.95Q82.48-15.86 83.63-15.34 84.79-14.81 85.59-13.95 86.39-13.08 86.82-11.88 87.24-10.68 87.24-9.24ZM104.42-25.59L112.93-25.87 111.63-1.41 102.18-0.54 97.13-13.64 96.33-0.29 88.21-0.29 88.86-25.87 97.88-26.31 104.13-13.32 104.42-25.59ZM136.5-13.82L136.5-13.82Q136.5-12.18 136.12-10.65 135.74-9.13 135.03-7.79 134.31-6.46 133.29-5.35 132.28-4.24 131-3.45 129.73-2.65 128.23-2.21 126.74-1.77 125.06-1.77L125.06-1.77Q123.43-1.77 121.96-2.18 120.49-2.6 119.21-3.35 117.93-4.1 116.89-5.15 115.86-6.21 115.13-7.5 114.39-8.79 113.99-10.27 113.58-11.75 113.58-13.35L113.58-13.35Q113.58-14.92 113.96-16.43 114.34-17.94 115.05-19.27 115.77-20.61 116.78-21.72 117.79-22.84 119.04-23.65 120.29-24.47 121.76-24.92 123.22-25.37 124.84-25.37L124.84-25.37Q127.46-25.37 129.61-24.56 131.77-23.74 133.29-22.24 134.82-20.73 135.66-18.59 136.5-16.46 136.5-13.82ZM128.49-13.35L128.49-13.35Q128.49-14.13 128.26-14.86 128.04-15.59 127.6-16.16 127.17-16.73 126.53-17.08 125.89-17.43 125.06-17.43L125.06-17.43Q124.21-17.43 123.54-17.12 122.87-16.82 122.4-16.28 121.92-15.75 121.67-15.04 121.41-14.33 121.41-13.53L121.41-13.53Q121.41-12.77 121.63-12.02 121.85-11.26 122.28-10.65 122.71-10.03 123.35-9.65 123.99-9.27 124.84-9.27L124.84-9.27Q125.69-9.27 126.37-9.61 127.04-9.94 127.51-10.51 127.98-11.08 128.23-11.82 128.49-12.56 128.49-13.35ZM150.91-25.84L159.21-25.3 152.61-0.9 143.66-0.4 135.54-23.96 144.09-24.76 147.56-11.04 150.91-25.84ZM173.5-25.84L180.54-1.55 171.59-0.4 170.51-4.47 166.4-4.47 165.49-0.4 156.29-1.3 163.47-25.33 173.5-25.84ZM167.15-10L169.86-10 168.49-16.28 167.15-10Z" transform="translate(-0.9600000381469727, 26.34000015258789)"></path></g> <!----> <!----> <!----> <!----> <!----> <!----> <!----></g></g> <!----></g></g><defs v-gra="od"></defs></svg>